<?xml version="1.0" encoding="UTF-8" standalone="no"?>
<svg width="19px" height="19px" viewBox="0 0 19 19" version="1.1" xmlns="http://www.w3.org/2000/svg" xmlns:xlink="http://www.w3.org/1999/xlink" xmlns:sketch="http://www.bohemiancoding.com/sketch/ns">
    <title>Add</title>
    <defs></defs>
    <g id="add-icon-group" fill="#4CC148">
        <path d="M0,8.99895656 C0,8.44724809 0.45259259,8 0.996053616,8 L7.99216454,8 L7.99216454,0.997030139 C7.99216454,0.446385598 8.43439132,0 8.9901427,0 L9.9912481,0 C10.5424162,0 10.9892262,0.453036308 10.9892262,0.997030139 L10.9892262,8 L17.9853372,8 C18.5354424,8 18.9813908,8.44266033 18.9813908,8.99895656 L18.9813908,10.0010434 C18.9813908,10.5527519 18.5287982,11 17.9853372,11 L10.9892262,11 L10.9892262,18.0029699 C10.9892262,18.5536144 10.5469995,19 9.9912481,19 L8.9901427,19 C8.43897458,19 7.99216454,18.5469637 7.99216454,18.0029699 L7.99216454,11 L0.996053616,11 C0.445948394,11 0,10.5573397 0,10.0010434 L0,8.99895656 Z" id="add-icon-path"></path>
    </g>
</svg>