<?xml version="1.0" encoding="utf-8"?>
<!-- Generator: Adobe Illustrator 17.0.0, SVG Export Plug-In . SVG Version: 6.00 Build 0)  -->
<!DOCTYPE svg PUBLIC "-//W3C//DTD SVG 1.1//EN" "http://www.w3.org/Graphics/SVG/1.1/DTD/svg11.dtd">
<svg version="1.1" id="Layer_1" xmlns="http://www.w3.org/2000/svg" xmlns:xlink="http://www.w3.org/1999/xlink" x="0px" y="0px"
	 width="21px" height="21px" viewBox="0 0 21 21" enable-background="new 0 0 21 21" xml:space="preserve">
<g transform="translate(-339.000000, -208.000000)">
	<path fill="#1A1918" stroke="#7B859C" d="M357.395,215.332l-4.683-0.719l-2.036-4.363c-0.214-0.458-0.673-0.751-1.177-0.751
		c-0.504,0-0.962,0.293-1.177,0.751l-2.036,4.363l-4.684,0.719c-0.482,0.074-0.881,0.413-1.036,0.877
		c-0.155,0.465-0.038,0.977,0.302,1.327l3.432,3.538l-0.796,4.907c-0.081,0.494,0.127,0.99,0.533,1.279
		c0.223,0.158,0.486,0.239,0.749,0.239c0.216,0,0.432-0.055,0.629-0.163l4.083-2.269l4.084,2.269
		c0.196,0.108,0.413,0.163,0.628,0.163c0.263,0,0.525-0.081,0.749-0.239c0.406-0.289,0.614-0.786,0.533-1.279l-0.796-4.907
		l3.433-3.538c0.34-0.35,0.456-0.862,0.302-1.327C358.276,215.745,357.876,215.405,357.395,215.332z"/>
</g>
</svg>
