<?xml version="1.0" encoding="utf-8"?>
<!-- Generator: Adobe Illustrator 17.0.0, SVG Export Plug-In . SVG Version: 6.00 Build 0)  -->
<!DOCTYPE svg PUBLIC "-//W3C//DTD SVG 1.1//EN" "http://www.w3.org/Graphics/SVG/1.1/DTD/svg11.dtd">
<svg version="1.1" id="Layer_1" xmlns:sketch="http://www.bohemiancoding.com/sketch/ns"
	 xmlns="http://www.w3.org/2000/svg" xmlns:xlink="http://www.w3.org/1999/xlink" x="0px" y="0px" width="15px" height="15px"
	 viewBox="0 0 15 15" enable-background="new 0 0 15 15" xml:space="preserve">
<title>Image</title>
<description>Created with Sketch.</description>
<g id="Icons" sketch:type="MSPage">
	<g id="Image" transform="translate(-384.000000, -305.000000)" sketch:type="MSArtboardGroup">
		<g transform="translate(385.000000, 306.000000)" sketch:type="MSLayerGroup">
			<path id="Rectangle-11" sketch:type="MSShapeGroup" fill="#FFFFFF" stroke="#939CB0" d="M2.516,0.516h9c1.105,0,2,0.895,2,2v9
				c0,1.105-0.895,2-2,2h-9c-1.105,0-2-0.895-2-2v-9C0.516,1.411,1.411,0.516,2.516,0.516z"/>
			<path id="Path-26" sketch:type="MSShapeGroup" fill="#BFC4D0" d="M1,11.506c0,0.775,0.594,1.535,1.521,1.535h8.916
				c0.875,0,1.594-0.224,1.594-1.255V7.771c0,0-1.016,1.261-2.516,1.261S7,6.516,4.5,6.516c-2.444,0-3.5,2-3.5,2V11.506z"/>
			<circle id="Oval-9" sketch:type="MSShapeGroup" fill="#BFC4D0" stroke="#BFC4D0" cx="10.766" cy="4.766" r="0.75">
			</circle>
		</g>
	</g>
</g>
</svg>
