<?xml version="1.0" encoding="UTF-8" standalone="no"?>
<svg width="15px" height="15px" viewBox="0 0 15 15" version="1.1" xmlns="http://www.w3.org/2000/svg" xmlns:xlink="http://www.w3.org/1999/xlink" >
    <defs></defs>
    <g id="Icons" stroke="none" stroke-width="1" fill="none" fill-rule="evenodd"  transform="translate(-341.000000, -382.000000)" >
      <path fill="#99A1B5" d="M345.538,394.803c-0.658,0.652-1.753,0.589-2.342,0
			c-0.589-0.589-0.589-1.768,0-2.357l2.946-2.946c0.579-0.574,1.564-1.388,2.357-0.601c0.366,0.362,0.819,0.364,1.178,0
			c0.362-0.364,0.364-0.805,0-1.167c-1.35-1.339-2.976-1.134-4.714,0.589l-2.926,2.946c-0.904,0.884-1.747,2.929,0,4.706
			c1.747,1.776,4.003,0.685,4.693,0l0.884-0.875c0.364-0.361,0.295-0.884,0-1.179c-0.295-0.295-0.813-0.362-1.179,0L345.538,394.803
			z M351.462,384.197c0.658-0.652,1.753-0.589,2.342,0c0.589,0.589,0.589,1.768,0,2.357l-2.946,2.946
			c-0.579,0.574-1.564,1.388-2.357,0.601c-0.366-0.362-0.819-0.364-1.178,0c-0.362,0.364-0.364,0.805,0,1.167
			c1.35,1.339,2.976,1.134,4.714-0.589l2.926-2.946c0.904-0.884,1.747-2.929,0-4.706c-1.747-1.776-4.003-0.685-4.693,0l-0.884,0.875
			c-0.364,0.361-0.295,0.884,0,1.179c0.295,0.295,0.813,0.362,1.179,0L351.462,384.197z"/>
    </g>
</svg>
