<?xml version="1.0" encoding="UTF-8" standalone="no"?>
<svg width="17px" height="17px" viewBox="0 0 17 17" version="1.1" xmlns="http://www.w3.org/2000/svg" xmlns:xlink="http://www.w3.org/1999/xlink" xmlns:sketch="http://www.bohemiancoding.com/sketch/ns">
    <title>Search Icon</title>
    <defs></defs>
    <g id="search-icon-group" fill="#9DACBA" opacity="0.5">
        <path d="M13.2903207,10.923687 C13.9396738,9.85713336 14.3133366,8.60488416 14.3133366,7.26491372 C14.3133366,3.37259692 10.940574,0 7.04764535,0 C3.15562809,0 0,3.15568622 0,7.04823086 C0,10.9407755 3.37276264,14.3131446 7.2647799,14.3131446 C8.55892919,14.3131446 9.77105492,13.9627153 10.8132096,13.3539071 L14.1413188,16.6823238 C14.5648792,17.1058921 15.2515986,17.1058921 15.6747034,16.6823238 L16.7485283,15.6091626 C17.1725445,15.1853665 17.0189782,14.6522036 16.5954177,14.2286354 L13.2903207,10.923687 Z M2.16929495,7.04823086 C2.16929495,4.35325205 4.35385539,2.16865137 7.04787319,2.16865137 C9.74325805,2.16865137 12.1444974,4.56993491 12.1444974,7.26491372 C12.1444974,9.95989253 9.95993692,12.1444932 7.26500775,12.1444932 C4.57053426,12.1444932 2.16929495,9.74320967 2.16929495,7.04823086 L2.16929495,7.04823086 Z"></path>
    </g>
</svg>