<?xml version="1.0" encoding="utf-8"?>
<!DOCTYPE svg PUBLIC "-//W3C//DTD SVG 1.1//EN" "http://www.w3.org/Graphics/SVG/1.1/DTD/svg11.dtd">
<svg version="1.1" id="Layer_1" xmlns="http://www.w3.org/2000/svg" xmlns:xlink="http://www.w3.org/1999/xlink" x="0px" y="0px" width="22.5px" height="15.5px"
	 viewBox="0 0 22.5 15.5" enable-background="new 0 0 22.5 15.5" xml:space="preserve">
		<path class="sync-svg" fill="#4A90E2" stroke="#4A90E2" d="M396.2,215.668c-0.441-0.356-0.994-0.568-1.595-0.568
			c-1.415,0-2.567,1.174-2.603,2.637c-1.461,0.57-2.501,2.036-2.501,3.754c0,2.03,1.451,3.708,3.333,3.972l0,0v0.036h13.333v-0.006
			c1.859-0.112,3.333-1.716,3.333-3.677c0-1.892-1.371-3.45-3.136-3.659c0.007-0.115,0.011-0.232,0.011-0.349
			c0-2.932-2.378-5.308-5.312-5.308C398.891,212.5,397.023,213.802,396.2,215.668z"/>
</svg>
